<?xml version="1.0" standalone="no"?>
<!DOCTYPE svg PUBLIC "-//W3C//DTD SVG 20010904//EN"
 "http://www.w3.org/TR/2001/REC-SVG-20010904/DTD/svg10.dtd">
<svg version="1.0" xmlns="http://www.w3.org/2000/svg"
 width="16.000000pt" height="16.000000pt" viewBox="0 0 16.000000 16.000000"
 preserveAspectRatio="xMidYMid meet">
<metadata>
Created by potrace 1.11, written by Peter Selinger 2001-2013
</metadata>
<g transform="translate(0.000000,16.000000) scale(0.002000,-0.002000)"
fill="#000000" stroke="none">
<path d="M54 7990 c-12 -5 -29 -19 -38 -32 -15 -20 -16 -359 -16 -3958 l0
-3935 24 -30 24 -30 3951 0 3950 0 23 23 23 23 2 3942 3 3942 -24 30 -24 30
-3939 2 c-2204 1 -3947 -2 -3959 -7z m7816 -3990 l0 -3870 -3870 0 -3870 0 0
3870 0 3870 3870 0 3870 0 0 -3870z"/>
<path d="M3007 5693 c-1 -1 -117 -4 -258 -6 -302 -6 -316 -10 -381 -97 -108
-144 -42 -368 140 -477 23 -13 42 -27 42 -28 0 -2 -33 -118 -74 -257 -41 -139
-95 -329 -121 -423 -25 -93 -52 -190 -60 -215 -7 -25 -17 -60 -20 -77 -4 -18
-8 -33 -9 -33 -1 0 -43 13 -92 29 -159 52 -222 62 -374 61 -120 0 -168 -5
-260 -26 -444 -100 -808 -490 -874 -937 -18 -116 -18 -259 -1 -362 18 -103 19
-108 45 -184 118 -351 400 -627 750 -735 409 -127 846 -18 1151 286 219 219
334 493 337 804 3 327 -120 611 -370 853 l-58 56 21 68 c14 46 24 65 32 61 7
-4 53 -35 102 -69 50 -34 153 -105 230 -157 672 -457 980 -671 977 -679 -22
-82 -19 -217 7 -291 25 -73 80 -156 133 -203 49 -42 165 -100 223 -110 55 -10
167 -7 197 4 24 9 27 6 59 -67 19 -42 36 -79 37 -84 2 -4 -21 -8 -52 -8 l-56
0 0 -78 0 -78 230 0 230 0 0 72 0 72 -112 -1 -113 -1 -46 90 c-63 121 -66 132
-37 143 64 25 160 141 195 237 18 46 19 48 58 47 22 -1 45 -1 51 -2 7 -1 15
-22 19 -47 10 -68 11 -75 35 -155 124 -418 516 -752 945 -805 146 -19 322 -7
458 31 91 25 99 28 159 57 32 15 61 28 63 28 3 0 36 19 73 42 250 155 442 411
511 683 32 126 36 160 34 320 -1 162 -20 265 -78 408 -136 342 -440 603 -797
686 -118 28 -150 32 -263 32 -149 1 -230 -13 -383 -63 -35 -11 -67 -16 -72
-12 -10 12 -95 165 -215 389 -26 50 -51 95 -55 100 -4 6 -30 53 -57 105 l-51
95 71 166 71 167 56 5 c97 11 156 53 184 132 28 78 45 139 40 146 -2 4 -246 7
-541 7 -581 0 -569 1 -612 -54 -17 -21 -19 -30 -9 -48 17 -31 34 -42 123 -77
100 -40 149 -53 305 -85 68 -14 125 -26 126 -27 1 -1 -26 -64 -60 -139 l-61
-137 -1056 -1 -1057 0 18 68 c10 37 27 100 39 141 18 64 19 80 9 115 -15 49
-78 116 -140 147 -61 31 -72 49 -47 74 18 19 34 20 222 22 111 1 218 2 237 2
l36 1 0 143 0 142 -79 0 c-43 0 -79 -1 -80 -2z m1763 -1134 c0 -5 -7 -23 -15
-41 -8 -18 -60 -148 -115 -288 -55 -140 -105 -266 -111 -280 -6 -14 -50 -124
-98 -245 l-86 -220 -55 -7 c-30 -4 -77 -14 -103 -22 l-48 -14 -35 71 c-61 124
-63 113 19 114 127 1 115 -8 114 83 l-1 80 -235 -2 -236 -3 0 -60 c0 -33 1
-65 3 -72 2 -8 31 -11 89 -9 l86 2 59 -125 c52 -108 58 -126 45 -138 -13 -13
-28 -6 -123 59 -60 41 -255 173 -434 293 -179 120 -326 222 -328 227 -2 4 -8
8 -14 8 -6 0 -31 15 -57 34 -25 18 -131 91 -236 161 -104 70 -195 131 -202
136 -8 8 -7 24 7 67 10 31 28 89 40 128 l21 71 1024 0 c564 0 1025 -4 1025 -8z
m347 -106 c4 -10 23 -47 43 -83 20 -36 58 -105 85 -155 26 -49 68 -125 92
-169 l43 -78 -28 -22 c-145 -112 -260 -251 -340 -411 -49 -98 -75 -175 -99
-288 l-18 -87 -55 0 -55 0 -33 63 c-17 35 -50 83 -73 106 l-40 44 14 41 c8 22
48 120 89 216 41 96 137 325 214 507 76 183 143 333 147 333 4 0 11 -8 14 -17z
m-3140 -623 c66 -15 179 -52 188 -62 3 -3 -81 -253 -118 -350 -27 -70 -37 -81
-230 -264 -83 -79 -109 -119 -110 -172 -3 -87 158 -123 263 -60 195 118 336
300 411 532 17 50 32 97 35 105 12 36 137 -173 174 -291 62 -203 45 -418 -50
-611 -99 -199 -275 -352 -486 -421 -234 -77 -503 -40 -709 98 -387 258 -487
780 -222 1165 74 108 222 229 344 282 151 66 353 85 510 49z m4239 0 c312 -71
543 -295 625 -605 22 -84 30 -241 16 -325 -61 -373 -360 -660 -727 -697 -142
-14 -245 -2 -370 43 -236 85 -426 279 -504 515 -13 41 -26 88 -29 104 l-6 31
409 3 c225 1 423 6 441 11 80 23 101 65 75 152 -9 29 -101 206 -205 393 l-189
340 30 13 c98 42 302 53 434 22z m-644 -220 c48 -89 88 -163 169 -312 38 -69
69 -129 69 -132 0 -3 -132 -6 -294 -6 l-294 0 9 39 c16 73 61 184 103 254 36
61 191 236 200 226 2 -2 19 -33 38 -69z m-1305 -320 c-11 -27 -23 -50 -26 -50
-4 0 -14 18 -23 41 -17 39 -17 40 5 49 12 5 32 9 44 9 l21 1 -21 -50z m347
-90 l26 -40 -45 0 c-25 0 -45 5 -45 10 0 12 28 70 34 70 2 0 15 -18 30 -40z
m-338 -298 c25 -11 39 -32 80 -118 l50 -105 -24 -6 c-45 -11 -138 4 -196 33
-48 23 -98 68 -146 131 -14 17 -46 144 -44 171 1 12 2 33 3 47 1 25 6 22 124
-57 67 -46 136 -89 153 -96z m337 -11 c20 -1 37 -5 37 -10 0 -21 -69 -108
-109 -139 l-45 -34 -42 89 c-49 101 -50 99 59 96 34 -1 79 -2 100 -2z"/>
</g>
</svg>
